HIERARCHY
ROOT joint_0
{
	OFFSET 0.000000 0.000000 0.000000
	CHANNELS 6 Xposition Yposition Zposition Zrotation Yrotation Xrotation 
	JOINT joint_1
	{
		OFFSET -0.613770 -1.125488 108.300049
		CHANNELS 3 Zrotation Yrotation Xrotation
		JOINT joint_2
		{
			OFFSET -10.925537 -0.900513 98.259033
			CHANNELS 3 Zrotation Yrotation Xrotation
			JOINT joint_3
			{
				OFFSET -11.287842 0.313599 98.110962
				CHANNELS 3 Zrotation Yrotation Xrotation
				JOINT joint_4
				{
					OFFSET -2.124268 2.484680 136.491943
					CHANNELS 3 Zrotation Yrotation Xrotation
					JOINT joint_5
					{
						OFFSET 16.640869 1.801270 81.862061
						CHANNELS 3 Zrotation Yrotation Xrotation
						End Site
						{
							OFFSET 0.000000 0.000000 0.000000
						}
					}
				}
				JOINT joint_6
				{
					OFFSET 0.447998 -28.248108 77.258057
					CHANNELS 3 Zrotation Yrotation Xrotation
					JOINT joint_7
					{
						OFFSET 7.918701 -130.256348 -24.086060
						CHANNELS 3 Zrotation Yrotation Xrotation
						JOINT joint_8
						{
							OFFSET 62.431885 -29.384277 -258.572021
							CHANNELS 3 Zrotation Yrotation Xrotation
							JOINT joint_9
							{
								OFFSET 53.743164 -21.907532 -238.024963
								CHANNELS 3 Zrotation Yrotation Xrotation
								End Site
								{
									OFFSET 0.000000 0.000000 0.000000
								}
							}
						}
					}
				}
				JOINT joint_10
				{
					OFFSET -2.846924 31.052063 76.130981
					CHANNELS 3 Zrotation Yrotation Xrotation
					JOINT joint_11
					{
						OFFSET 9.073730 131.055603 -18.752930
						CHANNELS 3 Zrotation Yrotation Xrotation
						JOINT joint_12
						{
							OFFSET 52.981201 29.883301 -260.613037
							CHANNELS 3 Zrotation Yrotation Xrotation
							JOINT joint_13
							{
								OFFSET 62.237793 15.935547 -236.423035
								CHANNELS 3 Zrotation Yrotation Xrotation
								End Site
								{
									OFFSET 0.000000 0.000000 0.000000
								}
							}
						}
					}
				}
			}
		}
	}
	JOINT joint_14
	{
		OFFSET 22.046143 -72.816772 -98.122925
		CHANNELS 3 Zrotation Yrotation Xrotation
		JOINT joint_15
		{
			OFFSET -23.673828 -54.692932 -469.927032
			CHANNELS 3 Zrotation Yrotation Xrotation
			JOINT joint_16
			{
				OFFSET -34.875244 -46.505249 -395.890999
				CHANNELS 3 Zrotation Yrotation Xrotation
				JOINT joint_17
				{
					OFFSET 168.486328 14.224182 -74.182999
					CHANNELS 3 Zrotation Yrotation Xrotation
					End Site
					{
						OFFSET 0.000000 0.000000 0.000000
					}
				}
			}
		}
	}
	JOINT joint_18
	{
		OFFSET -1.731934 82.408569 -92.846924
		CHANNELS 3 Zrotation Yrotation Xrotation
		JOINT joint_19
		{
			OFFSET -6.908936 32.203369 -472.535034
			CHANNELS 3 Zrotation Yrotation Xrotation
			JOINT joint_20
			{
				OFFSET -13.963135 23.196533 -399.207993
				CHANNELS 3 Zrotation Yrotation Xrotation
				JOINT joint_21
				{
					OFFSET 168.417725 19.834229 -73.041004
					CHANNELS 3 Zrotation Yrotation Xrotation
					End Site
					{
						OFFSET 0.000000 0.000000 0.000000
					}
				}
			}
		}
	}
}
MOTION
Frames: 17
Frame Time: 0.016667
-2217.022461 848.794922 1056.463989 -1.924566 6.654785 -2.153971 3.257992 13.772122 0.964458 -1.102688 -1.842208 0.194508 -1.442272 2.509489 0.413349 -0.025017 -0.696329 0.165381 0.000000 0.000000 0.000000 2.399258 -6.660528 -8.274031 -3.676191 -5.226201 -6.678253 2.462839 -32.320568 4.646788 0.000000 0.000000 0.000000 -0.840506 -5.258310 2.766383 11.433264 -4.803859 12.504473 -2.739039 -71.282189 -11.600570 0.000000 0.000000 0.000000 -2.312144 -38.460579 8.036588 -7.241295 52.298305 0.513736 -5.360839 1.513912 -2.278696 0.000000 0.000000 0.000000 1.146498 -3.542384 1.421081 3.079298 17.201701 -2.328911 2.171171 -9.794092 2.002941 0.000000 0.000000 0.000000 
-2194.081055 846.559631 1059.359009 -1.430924 7.186871 -1.914618 3.040378 13.554380 1.103801 -0.758616 -1.835925 0.127806 -1.059330 2.484803 0.408915 0.020739 -0.508460 -0.005043 0.000000 0.000000 0.000000 2.333112 -7.559969 -8.013061 -3.855038 -6.159530 -7.140062 2.348423 -32.643403 4.766807 0.000000 0.000000 0.000000 -0.852724 -5.427758 2.521260 11.990166 -5.166748 13.716717 -2.569388 -73.447559 -11.144010 0.000000 0.000000 0.000000 -2.316556 -39.374899 8.243040 -7.164384 47.268487 -0.498343 -5.113799 0.517278 -2.065679 0.000000 0.000000 0.000000 0.970039 -3.583556 1.510745 2.990087 18.322984 -2.543530 2.152061 -7.893365 1.774154 0.000000 0.000000 0.000000 
-2169.235352 843.550659 1062.530029 -0.961794 7.684124 -1.589958 2.684658 13.022637 1.227345 -0.300504 -1.751663 -0.013927 -0.523804 2.486014 0.365394 0.068742 -0.227786 -0.206757 0.000000 0.000000 0.000000 2.035612 -8.362411 -7.449206 -3.991416 -7.078229 -7.603737 2.351262 -32.808941 5.264398 0.000000 0.000000 0.000000 -0.782754 -5.372648 2.411623 12.298451 -5.353215 14.907266 -2.453155 -74.598610 -10.765928 0.000000 0.000000 0.000000 -2.088009 -39.190555 8.280218 -6.887815 40.388319 -1.227753 -4.506320 -1.179639 -1.668605 0.000000 0.000000 0.000000 0.794336 -3.844654 1.704076 2.952298 19.921618 -2.978057 2.194568 -5.236689 1.480497 0.000000 0.000000 0.000000 
-2142.937500 840.144714 1065.723022 -0.232027 8.033033 -1.071943 2.215966 12.538009 1.215885 0.125245 -1.736086 -0.097893 -0.036856 2.475853 0.323721 0.120472 0.110011 -0.451696 0.000000 0.000000 0.000000 1.585796 -9.132491 -6.686971 -4.074766 -8.019429 -8.038212 2.444464 -32.790837 6.031267 0.000000 0.000000 0.000000 -0.637752 -5.056583 2.402521 12.400072 -5.324356 16.040826 -2.368347 -75.059268 -10.367627 0.000000 0.000000 0.000000 -1.728493 -37.840543 7.982126 -6.337854 31.416453 -1.741638 -3.890396 -2.206720 -1.337897 0.000000 0.000000 0.000000 0.545108 -4.230845 1.852916 2.839391 21.962432 -3.516214 2.191047 -1.865549 1.082480 0.000000 0.000000 0.000000 
-2115.938721 836.939575 1067.302979 0.932363 8.009312 -0.347852 1.741465 12.430634 1.073415 0.389903 -1.861529 -0.003427 0.241446 2.447011 0.336649 0.175558 0.486328 -0.744955 0.000000 0.000000 0.000000 1.186233 -9.826995 -6.134251 -4.141387 -8.856888 -8.265155 2.551247 -32.800963 6.815534 0.000000 0.000000 0.000000 -0.340306 -4.599749 2.376239 12.205732 -5.184284 16.854109 -2.331789 -75.143100 -9.615544 0.000000 0.000000 0.000000 -1.427002 -36.039439 7.180328 -5.725746 23.397761 -1.850509 -3.596803 -1.839648 -1.253092 0.000000 0.000000 0.000000 0.093669 -4.733289 1.970944 2.578882 24.980898 -4.244881 2.080164 1.546633 0.634327 0.000000 0.000000 0.000000 
-2088.452637 834.385742 1066.869995 1.989141 7.788305 0.189940 1.351095 12.230986 1.425697 0.679703 -1.875558 -0.010919 0.589740 2.383626 0.387190 0.248339 0.940416 -1.159239 0.000000 0.000000 0.000000 0.905282 -10.430492 -5.935101 -4.223093 -9.558249 -8.288636 2.680152 -32.879164 7.655870 0.000000 0.000000 0.000000 0.244865 -4.025483 2.336448 11.639873 -4.926068 17.170152 -2.382000 -74.799463 -8.425892 0.000000 0.000000 0.000000 -0.994453 -34.547458 6.219490 -5.132231 17.893838 -1.398384 -3.296254 -1.622751 -1.149293 0.000000 0.000000 0.000000 -0.508110 -5.560887 2.425374 2.289671 29.200767 -5.308589 2.000925 5.478548 0.136593 0.000000 0.000000 0.000000 
-2060.265869 832.032715 1064.822998 2.856864 7.443851 0.483483 0.990680 11.877491 2.288364 1.059098 -1.743282 -0.217758 1.088662 2.279002 0.450292 0.321362 1.437917 -1.622232 0.000000 0.000000 0.000000 0.723215 -10.957436 -5.887913 -4.317270 -10.162927 -8.173886 2.832327 -32.938148 8.530269 0.000000 0.000000 0.000000 1.009296 -3.332911 2.348099 10.794910 -4.529268 17.151023 -2.514774 -74.051847 -6.937978 0.000000 0.000000 0.000000 -0.403782 -33.148434 5.393653 -4.620197 14.012769 -0.768140 -2.999634 -1.884445 -1.006960 0.000000 0.000000 0.000000 -1.161878 -6.618653 3.276405 1.988483 34.071553 -6.672738 2.008924 10.281885 -0.438927 0.000000 0.000000 0.000000 
-2031.498169 829.124390 1060.724976 3.746728 6.873886 0.728448 0.582789 11.735377 3.116180 1.494167 -1.624207 -0.460034 1.659923 2.206997 0.518258 0.359652 1.843548 -1.939479 0.000000 0.000000 0.000000 0.696153 -11.419092 -5.881958 -4.415404 -10.668162 -7.863620 2.921851 -33.049243 9.091092 0.000000 0.000000 0.000000 1.655983 -2.616852 2.356181 9.854674 -4.095959 17.004814 -2.666104 -73.334369 -5.126394 0.000000 0.000000 0.000000 0.109264 -31.824466 4.922436 -4.517843 12.227752 -0.632130 -3.071810 -1.912759 -1.032058 0.000000 0.000000 0.000000 -1.772944 -7.695210 4.359989 1.697161 39.197437 -8.262185 2.183789 14.594515 -0.918027 0.000000 0.000000 0.000000 
-2001.345581 825.160950 1053.692017 4.752883 5.862353 1.038252 0.025274 11.970219 3.700336 2.025866 -1.599679 -0.703409 2.360613 2.223124 0.587060 0.357958 2.107599 -2.039245 0.000000 0.000000 0.000000 0.901412 -11.701118 -5.937724 -4.579175 -10.938319 -7.320499 2.900597 -33.484954 9.133191 0.000000 0.000000 0.000000 2.050339 -1.857400 2.283729 8.876931 -3.680559 16.834144 -2.781737 -72.908743 -2.815615 0.000000 0.000000 0.000000 0.452310 -30.440850 4.917784 -5.052292 13.251740 -1.194671 -3.748743 -0.813035 -1.395146 0.000000 0.000000 0.000000 -2.347474 -8.580339 5.689323 1.420647 44.929486 -10.194142 2.710438 17.878543 -1.159346 0.000000 0.000000 0.000000 
-1970.611084 820.643311 1044.607056 5.803904 4.583464 1.238380 -0.674942 12.507301 4.312161 2.641348 -1.615676 -0.996549 3.199239 2.259970 0.649082 0.345413 2.267371 -2.036752 0.000000 0.000000 0.000000 1.271252 -11.944467 -5.997517 -4.753233 -11.129349 -6.676308 2.834806 -33.966861 8.864609 0.000000 0.000000 0.000000 2.325060 -1.052109 2.231866 7.826469 -3.267381 16.500245 -2.906631 -72.524812 -0.167636 0.000000 0.000000 0.000000 0.599263 -29.114982 5.330947 -6.035862 16.319280 -2.026950 -4.803571 0.757980 -1.950172 0.000000 0.000000 0.000000 -3.017951 -9.395092 7.273132 1.052952 50.951764 -12.246718 3.604806 20.664800 -1.142756 0.000000 0.000000 0.000000 
-1941.830200 816.314941 1035.687988 6.835465 3.590592 1.183581 -1.380462 13.231139 5.005848 3.235213 -1.647333 -1.259355 4.021040 2.305751 0.707836 0.346056 2.317476 -2.030066 0.000000 0.000000 0.000000 1.615754 -12.565589 -5.852348 -4.782829 -11.693461 -6.128467 2.813940 -33.776056 8.568622 0.000000 0.000000 0.000000 2.558724 -0.333208 2.233915 6.753660 -2.853688 15.942404 -3.105031 -71.923171 2.367942 0.000000 0.000000 0.000000 0.516891 -28.368788 5.991151 -7.160570 20.077178 -2.836047 -5.807090 0.777975 -2.346691 0.000000 0.000000 0.000000 -3.795831 -10.673411 8.877040 0.522390 56.484569 -13.957491 4.363322 22.043577 -0.696711 0.000000 0.000000 0.000000 
-1916.625854 812.346558 1027.201050 7.848323 3.207689 0.727897 -2.117196 14.128031 5.940868 3.782849 -1.687970 -1.484486 4.792043 2.401007 0.755823 0.376029 2.218534 -2.067900 0.000000 0.000000 0.000000 1.940183 -13.901753 -5.441965 -4.611255 -12.959574 -5.799208 2.868763 -32.389742 8.344042 0.000000 0.000000 0.000000 2.799583 0.167605 2.115514 5.697285 -2.480050 15.208445 -3.369040 -71.119102 4.758853 0.000000 0.000000 0.000000 0.256006 -28.852296 6.860951 -8.493180 24.980775 -3.572640 -6.595505 -2.461582 -2.363548 0.000000 0.000000 0.000000 -4.658021 -12.972599 10.600219 -0.178357 61.866177 -15.232579 4.294040 20.911199 0.557094 0.000000 0.000000 0.000000 
-1893.373291 808.568726 1018.879028 8.932003 3.105484 0.133617 -2.896383 15.267569 6.824405 4.312025 -1.777380 -1.605481 5.524804 2.506692 0.786682 0.417075 2.005142 -2.092899 0.000000 0.000000 0.000000 2.269251 -15.632795 -4.893589 -4.367452 -14.587332 -5.557390 2.963958 -30.315616 8.123910 0.000000 0.000000 0.000000 2.983852 0.557874 1.882166 4.600615 -2.089310 14.352447 -3.683487 -70.102163 7.058068 0.000000 0.000000 0.000000 -0.188976 -29.835504 7.763023 -9.999549 30.593521 -4.262171 -7.405673 -7.037209 -2.276328 0.000000 0.000000 0.000000 -5.526896 -15.933395 12.230257 -1.003976 67.104921 -16.119564 3.268131 18.315956 2.894782 0.000000 0.000000 0.000000 
-1869.737549 805.215698 1012.137024 9.863368 3.026792 -0.307394 -3.462273 16.348781 7.410452 4.872195 -1.861391 -1.680209 6.264327 2.585672 0.800752 0.432191 1.795927 -2.018599 0.000000 0.000000 0.000000 2.416282 -17.194134 -4.284781 -4.169625 -16.035456 -5.157141 3.081566 -28.410618 7.926999 0.000000 0.000000 0.000000 3.023439 1.017793 1.772267 3.376681 -1.523926 13.373523 -4.088754 -68.549508 8.952780 0.000000 0.000000 0.000000 -0.677376 -30.154982 8.589388 -11.212776 34.873028 -4.875190 -8.106792 -10.841956 -2.235471 0.000000 0.000000 0.000000 -6.112971 -18.948027 13.359219 -1.741579 71.266601 -16.623425 1.961680 15.866202 5.524936 0.000000 0.000000 0.000000 
-1844.848267 802.213135 1007.382019 10.487930 2.889169 -0.521481 -3.698479 17.243759 7.647628 5.526934 -1.909922 -1.814740 7.111131 2.697305 0.803057 0.396019 1.602806 -1.743326 0.000000 0.000000 0.000000 2.174302 -18.421491 -3.556474 -3.995156 -17.177208 -4.422593 3.204576 -26.968899 7.642118 0.000000 0.000000 0.000000 2.778435 1.549178 1.886173 1.915094 -0.759089 12.175113 -4.620613 -66.136145 10.526573 0.000000 0.000000 0.000000 -1.122742 -29.432294 9.434327 -11.961031 37.184254 -5.531389 -8.554969 -13.692178 -2.194182 0.000000 0.000000 0.000000 -6.250851 -21.879904 13.895735 -2.258800 74.118142 -16.868186 1.203225 13.769156 7.008570 0.000000 0.000000 0.000000 
-1819.574829 799.635437 1004.205017 10.901393 2.811260 -0.651247 -3.716528 17.993513 7.731499 6.211301 -1.924076 -1.988795 7.996677 2.817874 0.796152 0.332051 1.395021 -1.352212 0.000000 0.000000 0.000000 1.742440 -19.503640 -2.759395 -3.838419 -18.160881 -3.481228 3.337548 -25.683700 7.341076 0.000000 0.000000 0.000000 2.400623 2.036060 2.016827 0.383357 0.078864 10.975157 -5.223150 -62.918656 11.621211 0.000000 0.000000 0.000000 -1.588882 -28.186259 10.329958 -12.417365 38.388763 -6.215588 -8.780056 -16.272832 -2.096237 0.000000 0.000000 0.000000 -6.064236 -24.892601 14.002443 -2.597130 75.894152 -16.894409 1.127215 11.393571 7.025878 0.000000 0.000000 0.000000 
-1794.184082 797.947754 1002.801025 11.179297 2.893147 -0.800332 -3.557019 18.435264 7.919953 6.778872 -1.901569 -2.153068 8.740031 2.868735 0.789357 0.279767 1.238129 -1.047657 0.000000 0.000000 0.000000 1.478866 -20.397383 -2.088253 -3.782736 -18.881774 -2.517460 3.503829 -24.541090 7.302247 0.000000 0.000000 0.000000 2.245392 2.496857 2.049312 -0.906752 0.931641 10.152536 -5.830070 -59.109340 11.566191 0.000000 0.000000 0.000000 -2.082098 -26.774281 11.180610 -12.643267 38.898455 -6.737045 -8.813517 -18.242123 -1.969428 0.000000 0.000000 0.000000 -5.725373 -27.821647 13.807122 -2.792768 76.433591 -16.764641 1.624833 8.741291 5.945642 0.000000 0.000000 0.000000 
